@startuml
title 基于GitHub的实验管理平台--类图
class users {
    <b>user_id</b> （用户ID）
    name （用户真实姓名）
    github_username （用户GitHub账号）
    update_date （用户GitHub账号修改日期）
    password （用户密码）
    adress （用户住址）
    disable （用户是否禁用）
}
class teachers{
    <b>teacher_id</b> （老师工号）
    department （老师所属部门）
}
class students{
    <b>student_id</b> （学号）
    grade（年级）
    profession （专业）
    class （班级）
    result_sum（成绩汇总）
    web_sum （网站正确与否汇总）
}
users <|- students
users <|-- teachers
class grades {
    <b>student_id</b> （学号）
    <b>test_id</b> （实验编号）
    term_id （学期编号）
    standards  （评分标准）
    result_per （单项分数）
    result_sum （总分数）
    memo （评价）
    update_date （评改日期）
    avg_result （实验平均分数）
    common_result （平时成绩）
}

class  term {
    <b>Term_id</b> （学期编号）
    years (学年)
    Sem  (学期特征数)
}


class tests {
    <b>test_id</b> （实验编号）
    test_name (实验名称)
    test_stand (实验标准)
    final_time (实验截止时间)
    test_num(实验总数)
    point_maxresult(评分项分限)
    point_project(评分项数据)
    point_id(评分项编号)
    point_memo(单个评分项评语)
    point_result(单个评分项得分)
}
class course {
    <b>course_id</b> （课程代码）
     <b>teacher_id</b> （老师工号）
    course_name （课程名字）
    introduction （内容简介）
    course_person （选课人数）
     credit （学分）
    course_time （学时）

}
term "1" -- "n"  course
students "1" -- "n"  term
teachers "1" -- "n"  term
course "1" -- "1"  grades
course "1" -- "n"  tests
grades "n" -- "1"  tests


@enduml